<?xml version="1.0" encoding="UTF-8" standalone="no"?>
<!-- Created with Inkscape (http://www.inkscape.org/) -->

<svg
   xmlns:dc="http://purl.org/dc/elements/1.1/"
   xmlns:cc="http://creativecommons.org/ns#"
   xmlns:rdf="http://www.w3.org/1999/02/22-rdf-syntax-ns#"
   xmlns:svg="http://www.w3.org/2000/svg"
   xmlns="http://www.w3.org/2000/svg"
   xmlns:sodipodi="http://sodipodi.sourceforge.net/DTD/sodipodi-0.dtd"
   xmlns:inkscape="http://www.inkscape.org/namespaces/inkscape"
   width="256"
   height="256"
   viewBox="0 0 67.733335 67.73333"
   version="1.1"
   id="svg8"
   inkscape:export-filename="C:\Users\mo3er\bitmap1.png"
   inkscape:export-xdpi="96"
   inkscape:export-ydpi="96"
   inkscape:version="0.92.3 (2405546, 2018-03-11)"
   sodipodi:docname="moving_moutains.svg">
  <sodipodi:namedview
     id="base"
     pagecolor="#ffffff"
     bordercolor="#666666"
     borderopacity="1.0"
     inkscape:pageopacity="0.0"
     inkscape:pageshadow="2"
     inkscape:zoom="1.979899"
     inkscape:cx="363.22351"
     inkscape:cy="139.04757"
     inkscape:document-units="px"
     inkscape:current-layer="layer1"
     showgrid="false"
     units="px"
     inkscape:pagecheckerboard="true"
     inkscape:window-width="3200"
     inkscape:window-height="1675"
     inkscape:window-x="-13"
     inkscape:window-y="2291"
     inkscape:window-maximized="1"
     inkscape:snap-to-guides="true"
     inkscape:snap-global="true" />
  <defs
     id="defs2" />
  <metadata
     id="metadata5">
    <rdf:RDF>
      <cc:Work
         rdf:about="">
        <dc:format>image/svg+xml</dc:format>
        <dc:type
           rdf:resource="http://purl.org/dc/dcmitype/StillImage" />
        <dc:title />
      </cc:Work>
    </rdf:RDF>
  </metadata>
  <g
     transform="translate(0,-229.26667)"
     id="layer1"
     inkscape:groupmode="layer"
     inkscape:label="Layer 1">
    <rect
       style="stroke-width:0.26458332;fill-opacity:1;fill:#00009b"
       y="229.26668"
       x="0"
       height="67.73333"
       width="67.73333"
       id="rect3805" />
    <path
       transform="translate(0,229.26667)"
       id="path5003"
       title="t exp(-t*t)"
       d="m -2.81765,72.805868 c 0.0811,-0.0029 0.41872,-35.08488 0.4998,-35.087928 0.0811,-0.003 0.16212,-0.0062 0.24318,-0.0094 0.0811,-0.0032 0.16212,-0.0065 0.24319,-0.0098 0.0811,-0.0033 0.16213,-0.0067 0.24319,-0.01026 0.0811,-0.0035 0.16213,-0.0071 0.24319,-0.01073 0.0811,-0.0037 0.16213,-0.0074 0.24319,-0.01122 0.0811,-0.0039 0.16211996,-0.0077 0.24318996,-0.01174 0.0811,-0.0039 0.16212,-0.0081 0.24319,-0.01226 0.0811,-0.0042 0.16212,-0.0085 0.2432,-0.01281 0.0811,-0.0044 0.16212,-0.0088 0.24318,-0.01336 0.0811,-0.0045 0.16212,-0.0092 0.24319,-0.01396 0.0811,-0.0048 0.16213,-0.0096 0.24318,-0.01456 0.0811,-0.005 0.16215,-0.01001 0.2432,-0.01518 0.0811,-0.0051 0.16212,-0.01044 0.2432,-0.01583 0.0811,-0.0054 0.16213004,-0.01088 0.24318004,-0.01649 0.0811,-0.0056 0.16212,-0.01133 0.24319,-0.01717 0.0811,-0.0058 0.16214,-0.0118 0.24319,-0.01788 0.0811,-0.0061 0.16213,-0.01229 0.24319,-0.01861 0.0811,-0.0063 0.16213,-0.01278 0.24319,-0.01935 0.0811,-0.0066 0.16212,-0.01329 0.2432,-0.02013 0.0811,-0.0068 0.16213,-0.01381 0.24318,-0.02092 0.0811,-0.0071 0.16212,-0.01435 0.24319,-0.02174 0.0811,-0.0074 0.16214,-0.01491 0.24319,-0.02258 0.0811,-0.0076 0.16212,-0.01548 0.24319,-0.02344 0.0811,-0.0079 0.16214,-0.01606 0.24321,-0.02432 0.0811,-0.0083 0.16212,-0.01667 0.24317,-0.02523 0.0811,-0.0086 0.16213,-0.01728 0.24321,-0.02615 0.0811,-0.0088 0.16212,-0.01791 0.24318,-0.0271 0.0811,-0.0092 0.16213,-0.01856 0.24319,-0.02807 0.0811,-0.0095 0.16213,-0.01921 0.24318,-0.02906 0.0811,-0.0099 0.16214,-0.01988 0.2432,-0.03008 0.0811,-0.0102 0.16213,-0.02057 0.24318,-0.03112 0.0811,-0.01055 0.16213,-0.02129 0.24321,-0.03218 0.0811,-0.01091 0.16212,-0.022 0.24317,-0.03327 0.0811,-0.01128 0.16213,-0.02272 0.2432,-0.03438 0.0811,-0.01165 0.16213,-0.02347 0.24319,-0.0355 0.0811,-0.01202 0.16213,-0.02424 0.24319,-0.03665 0.0811,-0.01241 0.16212,-0.02501 0.2432,-0.03781 0.0811,-0.01281 0.16212,-0.0258 0.24318,-0.03901 0.0811,-0.0132 0.16213,-0.02661 0.2432,-0.04021 0.0811,-0.0136 0.16212,-0.02743 0.24318,-0.04144 0.0811,-0.01402 0.16213,-0.02824 0.24319,-0.04269 0.0811,-0.01443 0.16212,-0.02909 0.24319,-0.04395 0.0811,-0.01486 0.16213,-0.02994 0.2432,-0.04523 0.0811,-0.01529 0.16212,-0.0308 0.24318,-0.04653 0.0811,-0.01572 0.16212,-0.03167 0.2432,-0.04784 0.0811,-0.01617 0.16212,-0.03256 0.24317,-0.04917 0.0811,-0.01661 0.16214,-0.03345 0.2432,-0.05052 0.0811,-0.01706 0.16213,-0.03435 0.24319,-0.05187 0.0811,-0.01751 0.16214,-0.03527 0.24319,-0.05323 0.0811,-0.01797 0.16212,-0.03618 0.2432,-0.05461 0.0811,-0.01844 0.16212,-0.0371 0.24319,-0.056 0.0811,-0.0189 0.16212,-0.03803 0.24318,-0.05739 0.0811,-0.01936 0.16213,-0.03897 0.2432,-0.0588 0.0811,-0.01983 0.16212,-0.03991 0.24319,-0.06021 0.0811,-0.02031 0.16213,-0.04085 0.24318,-0.06163 0.0811,-0.02079 0.16212,-0.0418 0.2432,-0.06305 0.0811,-0.02126 0.16212,-0.04274 0.24318,-0.06447 0.0811,-0.02172 0.16212,-0.04369 0.2432,-0.0659 0.0811,-0.0222 0.16212,-0.04464 0.24319,-0.06732 0.0811,-0.02267 0.16212,-0.04559 0.24318,-0.06874 0.0811,-0.02315 0.16213,-0.04653 0.2432,-0.07015 0.0811,-0.02362 0.16213,-0.04747 0.24319,-0.07155 0.0811,-0.02409 0.16212,-0.04841 0.24319,-0.07296 0.0811,-0.02455 0.16213,-0.04933 0.24319,-0.07436 0.0811,-0.02501 0.16212,-0.05026 0.24318,-0.07574 0.0811,-0.02547 0.16215,-0.05118 0.24319,-0.0771 0.0811,-0.02592 0.16213,-0.05208 0.2432,-0.07845 0.0811,-0.02637 0.16214,-0.05297 0.24318,-0.07979 0.0811,-0.02682 0.16213,-0.05386 0.2432,-0.08112 0.0811,-0.02726 0.16213,-0.05472 0.24319,-0.08242 0.0811,-0.02769 0.16212,-0.05558 0.24319,-0.08369 0.0811,-0.02811 0.16213,-0.05642 0.24319,-0.08494 0.0811,-0.02852 0.16214,-0.05724 0.24318,-0.08616 0.0811,-0.02892 0.16215,-0.05804 0.24321,-0.08735 0.0811,-0.02931 0.16212,-0.05882 0.24318,-0.08852 0.0811,-0.0297 0.16213,-0.05959 0.24319,-0.08966 0.0811,-0.03008 0.16213,-0.06032 0.24319,-0.09075 0.0811,-0.03043 0.16213,-0.06103 0.2432,-0.09181 0.0811,-0.03078 0.16213,-0.06172 0.24318,-0.09283 0.0811,-0.03111 0.16212,-0.06238 0.2432,-0.09381 0.0811,-0.03142 0.16212,-0.06301 0.24317,-0.09474 0.0811,-0.03173 0.16214,-0.06361 0.2432,-0.09563 0.0811,-0.03203 0.16213,-0.06418 0.24319,-0.09647 0.0811,-0.03229 0.16213,-0.06472 0.24319,-0.09727 0.0811,-0.03255 0.16213,-0.06521 0.2432,-0.09801 0.0811,-0.03279 0.16213,-0.06568 0.24319,-0.09869 0.0811,-0.03301 0.16213,-0.06612 0.24319,-0.09932 0.0811,-0.0332 0.16212,-0.06651 0.24318,-0.0999 0.0811,-0.03339 0.16213,-0.06687 0.24321,-0.100409 0.0811,-0.03355 0.16212,-0.06717 0.24317,-0.100861 0.0811,-0.03369 0.16213,-0.06745 0.2432,-0.10125 0.0811,-0.03381 0.16213,-0.06766 0.24318,-0.101574 0.0811,-0.0339 0.16213,-0.06785 0.2432,-0.101829 0.0811,-0.03397 0.16212,-0.06799 0.24318,-0.102019 0.0811,-0.03403 0.16213,-0.06808 0.2432,-0.102137 0.0811,-0.03406 0.16212,-0.06812 0.24318,-0.102182 0.0811,-0.03406 0.16213,-0.06812 0.24321,-0.102157 0.0811,-0.03404 0.16212,-0.06806 0.24318,-0.102057 0.0811,-0.03399 0.16212,-0.06796 0.24319,-0.10188 0.0811,-0.03392 0.16213,-0.0678 0.24319,-0.101627 0.0811,-0.03383 0.16213,-0.06759 0.24319,-0.101297 0.0811,-0.0337 0.16212,-0.06733 0.2432,-0.100886 0.0811,-0.03355 0.16212,-0.06702 0.24318,-0.100397 0.0811,-0.03337 0.16212,-0.06665 0.24319,-0.09983 0.0811,-0.03317 0.16213,-0.06624 0.24319,-0.09918 0.0811,-0.03294 0.16213,-0.06576 0.24319,-0.09844 0.0811,-0.03268 0.16212,-0.06523 0.24319,-0.09763 0.0811,-0.03239 0.16212,-0.06465 0.24319,-0.09673 0.0811,-0.03209 0.16213,-0.06401 0.24319,-0.09575 0.0811,-0.03175 0.16214,-0.06331 0.24319,-0.09468 0.0811,-0.03138 0.16213,-0.06255 0.24319,-0.09354 0.0811,-0.03098 0.16213,-0.06175 0.24319,-0.0923 0.0811,-0.03056 0.16212,-0.06088 0.2432,-0.09099 0.0811,-0.0301 0.16213,-0.05997 0.24318,-0.08959 0.0811,-0.02962 0.16212,-0.059 0.24319,-0.08812 0.0811,-0.02912 0.16214,-0.05797 0.24319,-0.08656 0.0811,-0.02859 0.16213,-0.05689 0.24319,-0.08491 0.0811,-0.02802 0.16213,-0.05575 0.24319,-0.0832 0.0811,-0.02744 0.16213,-0.05458 0.24319,-0.08139 0.0811,-0.02683 0.16213,-0.05333 0.24319,-0.07951 0.0811,-0.02618 0.16212,-0.05204 0.2432,-0.07756 0.0811,-0.02552 0.16213,-0.0507 0.24319,-0.07554 0.0811,-0.02483 0.16212,-0.04932 0.24318,-0.07342 0.0811,-0.02412 0.16213,-0.04787 0.24321,-0.07125 0.0811,-0.02338 0.16212,-0.04639 0.24317,-0.069 0.0811,-0.02262 0.16213,-0.04485 0.2432,-0.06669 0.0811,-0.02184 0.16213,-0.04327 0.24318,-0.0643 0.0811,-0.02103 0.16214,-0.04165 0.2432,-0.06186 0.0811,-0.0202 0.16213,-0.03999 0.24318,-0.05935 0.0811,-0.01936 0.16213,-0.03827 0.2432,-0.05677 0.0811,-0.01849 0.16212,-0.03654 0.24318,-0.05414 0.0811,-0.01761 0.16213,-0.03476 0.2432,-0.05145 0.0811,-0.0167 0.16213,-0.03294 0.24318,-0.04872 0.0811,-0.01578 0.16213,-0.03108 0.2432,-0.04593 0.0811,-0.01484 0.16213,-0.0292 0.24319,-0.04309 0.0811,-0.01389 0.16213,-0.02728 0.24319,-0.0402 0.0811,-0.01291 0.16212,-0.02535 0.2432,-0.03727 0.0811,-0.01193 0.16212,-0.02337 0.24317,-0.0343 0.0811,-0.01094 0.16213,-0.02138 0.24321,-0.0313 0.0811,-0.0099 0.16212,-0.01936 0.24318,-0.02827 0.0811,-0.0089 0.16213,-0.01732 0.24319,-0.0252 0.0811,-0.0079 0.16212,-0.01527 0.24319,-0.02212 0.0811,-0.0068 0.16213,-0.01319 0.24319,-0.019 0.0811,-0.0058 0.16213,-0.0111 0.24318,-0.01587 0.0811,-0.0048 0.16213,-0.009 0.24321,-0.01272 0.0811,-0.0037 0.16212,-0.0069 0.24317,-0.0095 0.0811,-0.0027 0.16214,-0.0048 0.2432,-0.0063 0.0811,-0.0016 0.16213,-0.0027 0.2432,-0.0032 0.0811,-5.32e-4 0.16212,-5.31e-4 0.24318,0 0.0811,5.31e-4 0.16212,0.0015 0.2432,0.0032 0.0811,0.0016 0.16212,0.0037 0.24319,0.0063 0.0811,0.0027 0.16212,0.0058 0.24318,0.0095 0.0811,0.0037 0.16213,0.0079 0.2432,0.01272 0.0811,0.0048 0.16212,0.01005 0.24318,0.01587 0.0811,0.0058 0.16212,0.01215 0.24319,0.019 0.0811,0.0068 0.16212,0.01422 0.2432,0.02212 0.0811,0.0079 0.16212,0.0163 0.24318,0.0252 0.0811,0.0089 0.16212,0.01835 0.2432,0.02827 0.0811,0.0099 0.16212,0.02037 0.24319,0.0313 0.0811,0.01094 0.16213,0.02238 0.24318,0.0343 0.0811,0.01193 0.16212,0.02436 0.2432,0.03727 0.0811,0.01292 0.16213,0.02632 0.24318,0.0402 0.0811,0.01388 0.16213,0.02824 0.2432,0.04309 0.0811,0.01483 0.16213,0.03014 0.24319,0.04593 0.0811,0.01577 0.16212,0.03201 0.24318,0.04872 0.0811,0.0167 0.16214,0.03385 0.24319,0.05145 0.0811,0.01761 0.16213,0.03565 0.2432,0.05414 0.0811,0.01849 0.16213,0.03741 0.24318,0.05677 0.0811,0.01935 0.16212,0.03913 0.2432,0.05935 0.0811,0.0202 0.16213,0.04082 0.24318,0.06186 0.0811,0.02103 0.16215,0.04247 0.24319,0.0643 0.0811,0.02184 0.16214,0.04406 0.24321,0.06669 0.0811,0.02262 0.16212,0.04562 0.24317,0.069 0.0811,0.02338 0.16213,0.04713 0.24321,0.07125 0.0811,0.02412 0.16212,0.04859 0.24318,0.07342 0.0811,0.02483 0.16213,0.05002 0.24319,0.07554 0.0811,0.02551 0.16213,0.05138 0.24319,0.07756 0.0811,0.02619 0.16213,0.05269 0.24319,0.07951 0.0811,0.02683 0.16213,0.05396 0.24318,0.08139 0.0811,0.02744 0.16213,0.05517 0.24321,0.0832 0.0811,0.02802 0.16212,0.05633 0.24317,0.08491 0.0811,0.02859 0.16213,0.05745 0.2432,0.08656 0.0811,0.02911 0.16213,0.05849 0.2432,0.08812 0.0811,0.02962 0.16212,0.0595 0.24318,0.08959 0.0811,0.0301 0.16213,0.06043 0.2432,0.09099 0.0811,0.03056 0.16212,0.06133 0.24319,0.0923 0.0811,0.03098 0.16212,0.06216 0.24319,0.09354 0.0811,0.03138 0.16212,0.06294 0.24318,0.09468 0.0811,0.03175 0.16213,0.06367 0.24319,0.09575 0.0811,0.03209 0.16213,0.06433 0.24319,0.09673 0.0811,0.0324 0.16213,0.06495 0.2432,0.09763 0.0811,0.03268 0.16212,0.0655 0.24318,0.09844 0.0811,0.03294 0.16212,0.06601 0.2432,0.09918 0.0811,0.03317 0.16212,0.06645 0.24318,0.09983 0.0811,0.03337 0.16213,0.06685 0.24319,0.100397 0.0811,0.03355 0.16213,0.06718 0.2432,0.100886 0.0811,0.0337 0.16213,0.06747 0.24318,0.101297 0.0811,0.03383 0.16213,0.0677 0.2432,0.101627 0.0811,0.03392 0.16212,0.06789 0.24319,0.10188 0.0811,0.03399 0.16212,0.06802 0.24319,0.102057 0.0811,0.03404 0.16212,0.0681 0.24319,0.102157 0.0811,0.03406 0.16212,0.06813 0.24319,0.102182 0.0811,0.03406 0.16213,0.06811 0.24318,0.102137 0.0811,0.03403 0.16213,0.06805 0.2432,0.102019 0.0811,0.03397 0.16212,0.06793 0.24318,0.101829 0.0811,0.0339 0.16213,0.06777 0.2432,0.101574 0.0811,0.03381 0.16212,0.06757 0.24319,0.10125 0.0811,0.03368 0.16214,0.06732 0.24318,0.100861 0.0811,0.03355 0.16213,0.06702 0.2432,0.100409 0.0811,0.03339 0.16213,0.06669 0.24319,0.0999 0.0811,0.03321 0.16212,0.06632 0.24319,0.09932 0.0811,0.03301 0.16213,0.06591 0.24319,0.09869 0.0811,0.03279 0.16212,0.06545 0.24319,0.09801 0.0811,0.03255 0.16214,0.06498 0.24319,0.09727 0.0811,0.03229 0.16212,0.06445 0.24319,0.09647 0.0811,0.03202 0.16213,0.0639 0.24318,0.09563 0.0811,0.03172 0.16212,0.06331 0.2432,0.09474 0.0811,0.03142 0.16213,0.0627 0.24319,0.09381 0.0811,0.03111 0.16212,0.06205 0.24319,0.09283 0.0811,0.03077 0.16213,0.06138 0.2432,0.09181 0.0811,0.03043 0.16212,0.06068 0.24318,0.09075 0.0811,0.03008 0.16213,0.05995 0.2432,0.08966 0.0811,0.0297 0.16212,0.05921 0.24318,0.08852 0.0811,0.02931 0.16213,0.05844 0.2432,0.08735 0.0811,0.02892 0.16212,0.05764 0.24318,0.08616 0.0811,0.02851 0.16213,0.05683 0.2432,0.08494 0.0811,0.02811 0.16213,0.056 0.24317,0.08369 0.0811,0.02769 0.16214,0.05515 0.24321,0.08242 0.0811,0.02726 0.16212,0.0543 0.24318,0.08112 0.0811,0.02682 0.16213,0.05341 0.2432,0.07979 0.0811,0.02638 0.16212,0.05253 0.24318,0.07845 0.0811,0.02592 0.16213,0.05162 0.24319,0.0771 0.0811,0.02547 0.16214,0.05071 0.2432,0.07574 0.0811,0.02501 0.16212,0.0498 0.24319,0.07436 0.0811,0.02455 0.16212,0.04887 0.24319,0.07296 0.0811,0.02409 0.16212,0.04794 0.24319,0.07155 0.0811,0.02362 0.16212,0.047 0.24319,0.07015 0.0811,0.02315 0.16213,0.04606 0.24318,0.06874 0.0811,0.02267 0.16213,0.04511 0.2432,0.06732 0.0811,0.0222 0.16212,0.04416 0.24318,0.0659 0.0811,0.02173 0.16214,0.04321 0.2432,0.06447 0.0811,0.02126 0.16212,0.04227 0.24319,0.06305 0.0811,0.02079 0.16212,0.04133 0.24319,0.06163 0.0811,0.02031 0.16212,0.04038 0.24318,0.06021 0.0811,0.01983 0.16214,0.03944 0.2432,0.0588 0.0811,0.01936 0.16213,0.0385 0.24319,0.05739 0.0811,0.0189 0.16213,0.03757 0.24319,0.056 0.0811,0.01844 0.16212,0.03664 0.2432,0.05461 0.0811,0.01797 0.16212,0.03571 0.24318,0.05323 0.0811,0.01751 0.16212,0.0348 0.24319,0.05187 0.0811,0.01706 0.16213,0.03389 0.24318,0.05052 0.0811,0.01661 0.16213,0.033 0.2432,0.04917 0.0811,0.01617 0.16213,0.03212 0.24319,0.04784 0.0811,0.01572 0.16212,0.03124 0.24319,0.04653 0.0811,0.01529 0.16212,0.03036 0.24319,0.04523 0.0811,0.01486 0.16212,0.02951 0.24319,0.04395 0.0811,0.01444 0.16213,0.02867 0.24319,0.04269 0.0811,0.01402 0.16213,0.02783 0.24319,0.04144 0.0811,0.01361 0.16213,0.02702 0.24319,0.04021 0.0811,0.0132 0.16214,0.0262 0.24319,0.03901 0.0811,0.01281 0.16212,0.02541 0.2432,0.03781 0.0811,0.01241 0.16213,0.02463 0.24318,0.03665 0.0811,0.01202 0.16212,0.02386 0.24319,0.0355 0.0811,0.01164 0.16213,0.0231 0.24319,0.03438 0.0811,0.01128 0.16213,0.02236 0.24319,0.03327 0.0811,0.01091 0.16213,0.02163 0.24319,0.03218 0.0811,0.01055 0.16212,0.02093 0.24319,0.03112 0.0811,0.0102 0.16214,0.02022 0.24319,0.03008 0.0811,0.0099 0.16214,0.01955 0.24319,0.02906 0.0811,0.0095 0.16214,0.01888 0.2432,0.02807 0.0811,0.0092 0.16212,0.01823 0.24318,0.0271 0.0811,0.0088 0.16213,0.01759 0.24321,0.02615 0.0811,0.0086 0.16212,0.01697 0.24317,0.02523 0.0811,0.0083 0.16213,0.01636 0.2432,0.02432 0.0811,0.0079 0.16213,0.01578 0.24318,0.02344 0.0811,0.0076 0.16214,0.0152 0.2432,0.02258 0.0811,0.0074 0.16212,0.01463 0.24318,0.02174 0.0811,0.0071 0.16213,0.01409 0.2432,0.02092 0.0811,0.0068 0.16212,0.01355 0.24318,0.02013 0.0811,0.0066 0.16213,0.01303 0.24321,0.01935 0.0811,0.0063 0.16212,0.01253 0.24318,0.01861 0.0811,0.0061 0.16212,0.01205 0.24319,0.01788 0.0811,0.0058 0.16212,0.01156 0.2432,0.01717 0.0811,0.0056 0.16212,0.01111 0.24318,0.01649 0.0811,0.0054 0.16212,0.01067 0.2432,0.01583 0.0811,0.0051 0.16212,0.01023 0.24318,0.01518 0.0811,0.005 0.16212,0.0098 0.24319,0.01456 0.0811,0.0048 0.16213,0.0094 0.24319,0.01396 0.0811,0.0045 0.16213,0.009 0.24319,0.01336 0.0811,0.0044 0.16212,0.0087 0.24319,0.01281 0.0811,0.0042 0.16212,0.0083 0.2432,0.01226 0.0811,0.0039 0.16212,0.0079 0.24318,0.01174 0.0811,0.0039 0.16212,0.0076 0.24319,0.01122 0.0811,0.0037 0.16213,0.0073 0.24319,0.01073 0.0811,0.0035 0.16214,0.0069 0.24319,0.01026 0.0811,0.0033 0.16212,0.0066 0.2432,0.0098 0.0811,0.0032 0.16213,0.0063 0.24318,0.0094 0.0811,0.003 0.16212,35.172519 0.24319,35.175429"
       style="opacity:1;fill:#051937;fill-opacity:1;stroke:#a8eb12;stroke-width:0.27604941;stroke-opacity:0.39215686"
       inkscape:connector-curvature="0"
       sodipodi:nodetypes="cssssssssssssssssssssssssssssssssssssssssssssssssssssssssssssssssssssssssssssssssssssssssssssssssssssssssssssssssssssssssssssssssssssssssssssssssssssssssssssssssssssssssssssssssssssssssssssssssssssssssssssssssssssssssssssssssssssssssssssssssssssssssssssssssssssssssssssssssssssssssssssssssssssssssssc" />
  </g>
  <g
     inkscape:groupmode="layer"
     id="layer2"
     inkscape:label="hole">
    <rect
       transform="translate(0,-229.26667)"
       style="fill:#f9f9f9;stroke-width:0.25740129"
       y="238.52708"
       x="9.260417"
       height="49.212498"
       width="19.84375"
       id="rect3807" />
    <rect
       transform="translate(0,-229.26667)"
       style="fill:#f9f9f9;stroke-width:0.25740129"
       y="238.52708"
       x="38.629166"
       height="49.212498"
       width="19.84375"
       id="rect3807-3" />
  </g>
  <rect
     style="opacity:0;fill:#ff0000;fill-opacity:0.99215686;stroke:#a8eb12;stroke-width:0.26458332;stroke-opacity:0.39215686"
     id="rect4861"
     width="84.397812"
     height="52.160713"
     x="44.412205"
     y="-64.558334" />
</svg>
