<?xml version="1.0" encoding="UTF-8" standalone="no"?>
<!-- Created with Inkscape (http://www.inkscape.org/) -->

<svg
   xmlns:dc="http://purl.org/dc/elements/1.1/"
   xmlns:cc="http://creativecommons.org/ns#"
   xmlns:rdf="http://www.w3.org/1999/02/22-rdf-syntax-ns#"
   xmlns:svg="http://www.w3.org/2000/svg"
   xmlns="http://www.w3.org/2000/svg"
   xmlns:sodipodi="http://sodipodi.sourceforge.net/DTD/sodipodi-0.dtd"
   xmlns:inkscape="http://www.inkscape.org/namespaces/inkscape"
   width="256"
   height="256"
   viewBox="0 0 67.733335 67.73333"
   version="1.1"
   id="svg8"
   inkscape:export-filename="C:\Users\mo3er\bitmap.png"
   inkscape:export-xdpi="96"
   inkscape:export-ydpi="96"
   inkscape:version="0.92.3 (2405546, 2018-03-11)"
   sodipodi:docname="moving_moutains.svg">
  <sodipodi:namedview
     id="base"
     pagecolor="#ffffff"
     bordercolor="#666666"
     borderopacity="1.0"
     inkscape:pageopacity="0.0"
     inkscape:pageshadow="2"
     inkscape:zoom="1.979899"
     inkscape:cx="-128.40777"
     inkscape:cy="465.58109"
     inkscape:document-units="px"
     inkscape:current-layer="svg8"
     showgrid="false"
     units="px"
     inkscape:pagecheckerboard="true"
     inkscape:window-width="3200"
     inkscape:window-height="1675"
     inkscape:window-x="-13"
     inkscape:window-y="2291"
     inkscape:window-maximized="1"
     inkscape:snap-to-guides="true"
     inkscape:snap-global="true" />
  <defs
     id="defs2" />
  <metadata
     id="metadata5">
    <rdf:RDF>
      <cc:Work
         rdf:about="">
        <dc:format>image/svg+xml</dc:format>
        <dc:type
           rdf:resource="http://purl.org/dc/dcmitype/StillImage" />
        <dc:title />
      </cc:Work>
    </rdf:RDF>
  </metadata>
  <g
     transform="translate(0,-229.26667)"
     id="layer1"
     inkscape:groupmode="layer"
     inkscape:label="Layer 1">
    <rect
       style="stroke-width:0.26458332;fill-opacity:1;fill:#051937"
       y="229.26668"
       x="0"
       height="67.73333"
       width="67.73333"
       id="rect3805" />
    <rect
       style="fill:#f9f9f9;stroke-width:0.25740129"
       y="238.52708"
       x="9.260417"
       height="49.212498"
       width="19.84375"
       id="rect3807" />
    <rect
       style="fill:#f9f9f9;stroke-width:0.25740129"
       y="238.52708"
       x="38.629166"
       height="49.212498"
       width="19.84375"
       id="rect3807-3" />
  </g>
  <path
     style="opacity:1;fill:#051937;fill-opacity:0.99215686;stroke:#a8eb12;stroke-width:0.26458332;stroke-opacity:0.39215686"
     d=" M -45.073662 -46.9881278084 C -44.9925467113 -46.988356215 -44.9114314225 -46.9885975841 -44.8303161338 -46.9888533599 C -44.749200845 -46.9891091358 -44.6680855563 -46.9893793783 -44.5869702676 -46.9896655919 C -44.5058549788 -46.9899518055 -44.4247396901 -46.9902540856 -44.3436244013 -46.9905740866 C -44.2625091126 -46.9908940876 -44.1813938239 -46.9912319153 -44.1002785351 -46.9915893876 C -44.0191632464 -46.9919468598 -43.9380479576 -46.9923240939 -43.8569326689 -46.9927230849 C -43.7758173802 -46.9931220758 -43.6947020914 -46.9935429537 -43.6135868027 -46.9939879058 C -43.5324715139 -46.9944328578 -43.4513562252 -46.9949020281 -43.3702409365 -46.9953978121 C -43.2891256477 -46.9958935962 -43.208010359 -46.9964161532 -43.1268950702 -46.9969681045 C -43.0457797815 -46.9975200557 -42.9646644928 -46.998101577 -42.883549204 -46.9987155333 C -42.8024339153 -46.9993294896 -42.7213186265 -46.9999760749 -42.6402033378 -47.0006584174 C -42.5590880491 -47.0013407598 -42.4779727603 -47.0020590735 -42.3968574716 -47.0028167699 C -42.3157421828 -47.0035744664 -42.2346268941 -47.0043717816 -42.1535116054 -47.0052124325 C -42.0723963166 -47.0060530835 -41.9912810279 -47.0069373299 -41.9101657391 -47.0078692174 C -41.8290504504 -47.0088011048 -41.7479351617 -47.0097809188 -41.6668198729 -47.0108130576 C -41.5857045842 -47.0118451965 -41.5045892954 -47.0129299738 -41.4234740067 -47.0140721664 C -41.3423587179 -47.0152143591 -41.2612434292 -47.0164143112 -41.1801281405 -47.017677205 C -41.0990128517 -47.0189400989 -41.017897563 -47.0202663117 -40.9367822742 -47.0216614594 C -40.8556669855 -47.023056607 -40.7745516968 -47.0245211029 -40.693436408 -47.0260610259 C -40.6123211193 -47.0276009489 -40.5312058305 -47.0292167515 -40.4500905418 -47.0309150068 C -40.3689752531 -47.0326132621 -40.2878599643 -47.0343944646 -40.2067446756 -47.036265714 C -40.1256293868 -47.0381369634 -40.0445140981 -47.0400987998 -39.9633988094 -47.0421588827 C -39.8822835206 -47.0442189656 -39.8011682319 -47.0463778846 -39.7200529431 -47.0486438938 C -39.6389376544 -47.0509099029 -39.5578223657 -47.0532836451 -39.4767070769 -47.0557740052 C -39.3955917882 -47.0582643654 -39.3144764994 -47.0608720435 -39.2333612107 -47.0636065927 C -39.152245922 -47.0663411419 -39.0711306332 -47.0692033238 -38.9900153445 -47.072203398 C -38.9089000557 -47.0752034721 -38.827784767 -47.0783422664 -38.7466694783 -47.0816307861 C -38.6655541895 -47.0849193058 -38.5844389008 -47.0883584501 -38.503323612 -47.0919600103 C -38.4222083233 -47.0955615705 -38.3410930346 -47.0993265221 -38.2599777458 -47.1032674836 C -38.1788624571 -47.1072084452 -38.0977471683 -47.111326474 -38.0166318796 -47.1156350577 C -37.9355165909 -47.1199436414 -37.8544013021 -47.1244439248 -37.7732860134 -47.1291503071 C -37.6921707246 -47.1338566893 -37.6110554359 -47.1387704088 -37.5299401472 -47.1439068188 C -37.4488248584 -47.1490432288 -37.3677095697 -47.1544036676 -37.2865942809 -47.1600044858 C -37.2054789922 -47.165605304 -37.1243637035 -47.1714479465 -37.0432484147 -47.1775498038 C -36.962133126 -47.1836516612 -36.8810178372 -47.1900142917 -36.7999025485 -47.1966561692 C -36.7187872598 -47.2032980467 -36.637671971 -47.2102208501 -36.5565566823 -47.2174441784 C -36.4754413935 -47.2246675066 -36.3943261048 -47.2321931669 -36.3132108161 -47.2400419252 C -36.2320955273 -47.2478906834 -36.1509802386 -47.2560644827 -36.0698649498 -47.2645852965 C -35.9887496611 -47.2731061104 -35.9076343724 -47.2819760258 -35.8265190836 -47.2912182632 C -35.7454037949 -47.3004605007 -35.6642885061 -47.3100772996 -35.5831732174 -47.3200931647 C -35.5020579287 -47.3301090298 -35.4209426399 -47.3405263618 -35.3398273512 -47.3513709854 C -35.2587120624 -47.3622156089 -35.1775967737 -47.3734900948 -35.0964814849 -47.3852216209 C -35.0153661962 -47.3969531469 -34.9342509075 -47.4091444632 -34.8531356187 -47.4218241312 C -34.77202033 -47.4345037993 -34.6909050412 -47.4476747577 -34.6097897525 -47.461366979 C -34.5286744638 -47.4750592003 -34.447559175 -47.4892758215 -34.3664438863 -47.5040482496 C -34.2853285975 -47.5188206776 -34.2042133088 -47.5341522576 -34.1230980201 -47.5500758507 C -34.0419827313 -47.5659994438 -33.9608674426 -47.5825186133 -33.8797521538 -47.5996676893 C -33.7986368651 -47.6168167652 -33.7175215764 -47.6345995395 -33.6364062876 -47.653051821 C -33.5552909989 -47.6715041025 -33.4741757101 -47.6906299218 -33.3930604214 -47.7104665711 C -33.3119451327 -47.7303032205 -33.2308298439 -47.7508549795 -33.1497145552 -47.7721606223 C -33.0685992664 -47.7934662651 -32.9874839777 -47.8155303308 -32.906368689 -47.8383930668 C -32.8252534002 -47.8612558028 -32.7441381115 -47.8849220184 -32.6630228227 -47.9094334192 C -32.581907534 -47.9339448199 -32.5007922453 -47.9593064956 -32.4196769565 -47.9855615868 C -32.3385616678 -48.0118166781 -32.257446379 -48.0389705654 -32.1763310903 -48.0670677939 C -32.0952158016 -48.0951650224 -32.0141005128 -48.1242112734 -31.9329852241 -48.1542524565 C -31.8518699353 -48.1842936395 -31.7707546466 -48.215335747 -31.6896393579 -48.2474260041 C -31.6085240691 -48.2795162611 -31.5274087804 -48.312660981 -31.4462934916 -48.3469086456 C -31.3651782029 -48.3811563103 -31.2840629142 -48.4165135634 -31.2029476254 -48.4530300752 C -31.1218323367 -48.489546587 -31.0407170479 -48.5272293408 -30.9596017592 -48.5661291154 C -30.8784864705 -48.60502889 -30.7973711817 -48.6451530171 -30.716255893 -48.686553294 C -30.6351406042 -48.7279535709 -30.5540253155 -48.7706376857 -30.4729100268 -48.8146583523 C -30.391794738 -48.8586790189 -30.3106794493 -48.9040442896 -30.2295641605 -48.950807681 C -30.1484488718 -48.9975710724 -30.0673335831 -49.045741008 -29.9862182943 -49.0953716816 C -29.9051030056 -49.1450023552 -29.8239877168 -49.1961025676 -29.7428724281 -49.2487270513 C -29.6617571394 -49.301351535 -29.5806418506 -49.3555094739 -29.4995265619 -49.4112559882 C -29.4184112731 -49.4670025024 -29.3372959844 -49.5243471636 -29.2561806957 -49.5833453157 C -29.1750654069 -49.6423434679 -29.0939501182 -49.703005074 -29.0128348294 -49.7653855252 C -28.9317195407 -49.8277659765 -28.850604252 -49.8918756298 -28.7694889632 -49.957769734 C -28.6883736745 -50.0236638382 -28.6072583857 -50.0913531456 -28.526143097 -50.16089256 C -28.4450278082 -50.2304319744 -28.3639125195 -50.3018326438 -28.2827972308 -50.3751489116 C -28.201681942 -50.4484651793 -28.1205666533 -50.5237085882 -28.0394513645 -50.6009326929 C -27.9583360758 -50.6781567976 -27.8772207871 -50.7573735333 -27.7961054983 -50.8386354259 C -27.7149902096 -50.9198973185 -27.6338749208 -51.0032166916 -27.5527596321 -51.0886447898 C -27.4716443434 -51.1740728881 -27.3905290546 -51.2616224183 -27.3094137659 -51.3513430802 C -27.2282984771 -51.4410637421 -27.1471831884 -51.5329686184 -27.0660678997 -51.6271055895 C -26.9849526109 -51.7212425605 -26.9038373222 -51.8176250763 -26.8227220334 -51.9162989128 C -26.7416067447 -52.0149727493 -26.660491456 -52.1159517132 -26.5793761672 -52.219279182 C -26.4982608785 -52.3226066508 -26.4171455897 -52.4282967755 -26.336030301 -52.5363902325 C -26.2549150123 -52.6444836894 -26.1737997235 -52.7549949595 -26.0926844348 -52.8679617076 C -26.011569146 -52.9809284557 -25.9304538573 -53.0963654765 -25.8493385686 -53.2143071065 C -25.7682232798 -53.3322487364 -25.6871079911 -53.452710066 -25.6059927023 -53.5757217813 C -25.5248774136 -53.6987334965 -25.4437621249 -53.8243109632 -25.3626468361 -53.9524808911 C -25.2815315474 -54.080650819 -25.2004162586 -54.2114288269 -25.1193009699 -54.3448373199 C -25.0381856812 -54.4782458129 -24.9570703924 -54.6143006381 -24.8759551037 -54.7530195666 C -24.7948398149 -54.8917384951 -24.7137245262 -55.0331375759 -24.6326092375 -55.1772296169 C -24.5514939487 -55.3213216579 -24.47037866 -55.4681228813 -24.3892633712 -55.6176408053 C -24.3081480825 -55.7671587294 -24.2270327938 -55.9194097185 -24.145917505 -56.0743956786 C -24.0648022163 -56.2293816388 -23.9836869275 -56.3871190437 -23.9025716388 -56.5476038703 C -23.8214563501 -56.708088697 -23.7403410613 -56.8713374932 -23.6592257726 -57.0373399981 C -23.5781104838 -57.2033425031 -23.4969951951 -57.3721153014 -23.4158799064 -57.5436415955 C -23.3347646176 -57.7151678895 -23.2536493289 -57.8894642614 -23.1725340401 -58.0665070894 C -23.0914187514 -58.2435499173 -23.0103034627 -58.4233557398 -22.9291881739 -58.6058938372 C -22.8480728852 -58.7884319346 -22.7669575964 -58.9737187587 -22.6858423077 -59.1617162344 C -22.604727019 -59.3497137102 -22.5236117302 -59.5404381577 -22.4424964415 -59.733843907 C -22.3613811527 -59.9272496562 -22.280265864 -60.1233528489 -22.1991505753 -60.3221000004 C -22.1180352865 -60.5208471518 -22.0369199978 -60.7222541772 -21.955804709 -60.9262595798 C -21.8746894203 -61.1302649824 -21.7935741315 -61.3368844011 -21.7124588428 -61.5460481535 C -21.6313435541 -61.7552119059 -21.5502282653 -61.9669353037 -21.4691129766 -62.181140332 C -21.3879976878 -62.3953453602 -21.3068823991 -62.6120469511 -21.2257671104 -62.8311586377 C -21.1446518216 -63.0502703242 -21.0635365329 -63.2718066061 -20.9824212441 -63.4956724751 C -20.9013059554 -63.7195383442 -20.8201906667 -63.9457478134 -20.7390753779 -64.174197276 C -20.6579600892 -64.4026467386 -20.5768448004 -64.6333496661 -20.4957295117 -64.8661938289 C -20.414614223 -65.0990379917 -20.3334989342 -65.3340362647 -20.2523836455 -65.5710678063 C -20.1712683567 -65.8080993479 -20.090153068 -66.0471763808 -20.0090377793 -66.2881694984 C -19.9279224905 -66.5291626161 -19.8468072018 -66.7720833334 -19.765691913 -67.0167937634 C -19.6845766243 -67.2615041934 -19.6034613356 -67.5080150882 -19.5223460468 -67.7561802033 C -19.4412307581 -68.0043453185 -19.3601154693 -68.2541745881 -19.2790001806 -68.5055135733 C -19.1978848919 -68.7568525585 -19.1167696031 -69.0097103213 -19.0356543144 -69.2639244308 C -18.9545390256 -69.5181385403 -18.8734237369 -69.7737171331 -18.7923084482 -70.0304900302 C -18.7111931594 -70.2872629272 -18.6300778707 -70.5452372875 -18.5489625819 -70.8042354681 C -18.4678472932 -71.0632336487 -18.3867320045 -71.3232617804 -18.3056167157 -71.5841350819 C -18.224501427 -71.8450083835 -18.1433861382 -72.1067319082 -18.0622708495 -72.3691141032 C -17.9811555608 -72.6314962982 -17.900040272 -72.8945410921 -17.8189249833 -73.1580505671 C -17.7378096945 -73.4215600421 -17.6566944058 -73.6855369572 -17.5755791171 -73.9497774763 C -17.4944638283 -74.2140179954 -17.4133485396 -74.4785236654 -17.3322332508 -74.7430852172 C -17.2511179621 -75.007646769 -17.1700026734 -75.2722644976 -17.0888873846 -75.5367242241 C -17.0077720959 -75.8011839505 -16.9266568071 -76.065484681 -16.8455415184 -76.3294078861 C -16.7644262297 -76.5933310912 -16.6833109409 -76.8568744543 -16.6021956522 -77.1198156896 C -16.5210803634 -77.3827569249 -16.4399650747 -77.6450923627 -16.358849786 -77.9065965874 C -16.2777344972 -78.168100812 -16.1966192085 -78.4287687739 -16.1155039197 -78.6883725844 C -16.034388631 -78.947976395 -15.9532733423 -79.2065096018 -15.8721580535 -79.4637425288 C -15.7910427648 -79.7209754557 -15.709927476 -79.9769002285 -15.6288121873 -80.231286094 C -15.5476968986 -80.4856719595 -15.4665816098 -80.7385096067 -15.3854663211 -80.9895679388 C -15.3043510323 -81.240626271 -15.2232357436 -81.4898945299 -15.1421204548 -81.737142028 C -15.0610051661 -81.984389526 -14.9798898774 -82.2296040519 -14.8987745886 -82.4725560965 C -14.8176592999 -82.715508141 -14.7365440111 -82.9561840383 -14.6554287224 -83.1943562397 C -14.5743134337 -83.4325284412 -14.4931981449 -83.6681818297 -14.4120828562 -83.901091609 C -14.3309675674 -84.1340013882 -14.2498522787 -84.3641509979 -14.16873699 -84.5913191916 C -14.0876217012 -84.8184873852 -14.0065064125 -85.0426561721 -13.9253911237 -85.2636086551 C -13.844275835 -85.484561138 -13.7631605463 -85.7022779138 -13.6820452575 -85.916547232 C -13.6009299688 -86.1308165501 -13.51981468 -86.3416176177 -13.4386993913 -86.5487446225 C -13.3575841026 -86.7558716273 -13.2764688138 -86.9593024144 -13.1953535251 -87.1588378918 C -13.1142382363 -87.3583733693 -13.0331229476 -87.5539900526 -12.9520076589 -87.745496338 C -12.8708923701 -87.9370026235 -12.7897770814 -88.1243737344 -12.7086617926 -88.3074263057 C -12.6275465039 -88.490478877 -12.5464312152 -88.6691868818 -12.4653159264 -88.8433759223 C -12.3842006377 -89.0175649628 -12.3030853489 -89.1872078085 -12.2219700602 -89.352139732 C -12.1408547715 -89.5170716554 -12.0597394827 -89.6772642738 -11.978624194 -89.8325632035 C -11.8975089052 -89.9878621331 -11.8163936165 -90.1382378944 -11.7352783278 -90.2835470884 C -11.654163039 -90.4288562823 -11.5730477503 -90.569068392 -11.4919324615 -90.704051607 C -11.4108171728 -90.839034822 -11.3297018841 -90.9687576519 -11.2485865953 -91.093100439 C -11.1674713066 -91.2174432261 -11.0863560178 -91.3363735739 -11.0052407291 -91.4497844983 C -10.9241254404 -91.5631954227 -10.8430101516 -91.671053692 -10.7618948629 -91.7732654706 C -10.6807795741 -91.8754772492 -10.5996642854 -91.9720085445 -10.5185489967 -92.0627790956 C -10.4374337079 -92.1535496466 -10.3563184192 -92.238524777 -10.2752031304 -92.317638175 C -10.1940878417 -92.396751573 -10.112972553 -92.4699679585 -10.0318572642 -92.5372352901 C -9.95074197547 -92.6045026216 -9.86962668673 -92.6657850979 -9.78851139799 -92.7210452135 C -9.70739610925 -92.7763053291 -9.62628082051 -92.8255068456 -9.54516553177 -92.8686270027 C -9.46405024303 -92.9117471597 -9.38293495429 -92.9487493678 -9.30181966555 -92.9796257619 C -9.22070437681 -93.0105021561 -9.13958908807 -93.0352158833 -9.05847379933 -93.0537740648 C -8.97735851059 -93.0723322464 -8.89624322185 -93.0846978544 -8.81512793311 -93.0908930274 C -8.73401264437 -93.0970882004 -8.65289735563 -93.0970758249 -8.57178206689 -93.0908930274 C -8.49066677815 -93.0847102299 -8.40955148941 -93.0723199008 -8.32843620067 -93.0537740648 C -8.24732091193 -93.0352282289 -8.16620562319 -93.0104898701 -8.08509033445 -92.9796257619 C -8.00397504571 -92.9487616538 -7.92285975697 -92.9117349629 -7.84174446823 -92.8686270027 C -7.76062917949 -92.8255190424 -7.67951389075 -92.7762932507 -7.59839860201 -92.7210452135 C -7.51728331327 -92.6657971763 -7.43616802453 -92.6044906902 -7.35505273579 -92.5372352901 C -7.27393744705 -92.4699798899 -7.19282215831 -92.3967398167 -7.11170686957 -92.317638175 C -7.03059158082 -92.2385365333 -6.94947629208 -92.1535380929 -6.86836100334 -92.0627790956 C -6.7872457146 -91.9720200983 -6.70613042586 -91.8754659246 -6.62501513712 -91.7732654706 C -6.54389984838 -91.6710650165 -6.46278455964 -91.5631843529 -6.3816692709 -91.4497844983 C -6.30055398216 -91.3363846437 -6.21943869342 -91.2174324359 -6.13832340468 -91.093100439 C -6.05720811594 -90.9687684421 -5.9760928272 -90.8390243349 -5.89497753846 -90.704051607 C -5.81386224972 -90.5690788791 -5.73274696098 -90.4288461208 -5.65163167224 -90.2835470884 C -5.5705163835 -90.138248056 -5.48940109476 -89.9878523183 -5.40828580602 -89.8325632035 C -5.32717051728 -89.6772740886 -5.24605522854 -89.5170622071 -5.1649399398 -89.352139732 C -5.08382465106 -89.1872172568 -5.00270936232 -89.0175558995 -4.92159407358 -88.8433759223 C -4.84047878484 -88.6691959452 -4.7593634961 -88.4904702156 -4.67824820736 -88.3074263057 C -4.59713291862 -88.1243823958 -4.51601762988 -87.9369943795 -4.43490234114 -87.745496338 C -4.3537870524 -87.5539982966 -4.27267176366 -87.3583655566 -4.19155647492 -87.1588378918 C -4.11044118618 -86.959310227 -4.02932589744 -86.7558642583 -3.9482106087 -86.5487446225 C -3.86709531996 -86.3416249866 -3.78598003122 -86.1308096356 -3.70486474247 -85.916547232 C -3.62374945373 -85.7022848283 -3.54263416499 -85.4845546871 -3.46151887625 -85.2636086551 C -3.38040358751 -85.0426626231 -3.29928829877 -84.8184814053 -3.21817301003 -84.5913191916 C -3.13705772129 -84.3641569778 -3.05594243255 -84.1339958853 -2.97482714381 -83.901091609 C -2.89371185507 -83.6681873326 -2.81259656633 -83.4325234194 -2.73148127759 -83.1943562397 C -2.65036598885 -82.9561890601 -2.56925070011 -82.7155036029 -2.48813541137 -82.4725560965 C -2.40702012263 -82.22960859 -2.32590483389 -81.9843854727 -2.24478954515 -81.737142028 C -2.16367425641 -81.4898985832 -2.08255896767 -81.2406227019 -2.00144367893 -80.9895679388 C -1.92032839019 -80.7385131758 -1.83921310145 -80.4856688725 -1.75809781271 -80.231286094 C -1.67698252397 -79.9769033154 -1.59586723523 -79.7209728473 -1.51475194649 -79.4637425288 C -1.43363665775 -79.2065122102 -1.35252136901 -78.9479742602 -1.27140608027 -78.6883725844 C -1.19029079153 -78.4287709087 -1.10917550279 -78.1680991444 -1.02806021405 -77.9065965874 C -0.946944925307 -77.6450940304 -0.865829636566 -77.3827557167 -0.784714347826 -77.1198156896 C -0.703599059086 -76.8568756625 -0.622483770345 -76.5933303334 -0.541368481605 -76.3294078861 C -0.460253192865 -76.0654854388 -0.379137904125 -75.801183633 -0.298022615385 -75.5367242241 C -0.216907326644 -75.2722648151 -0.135792037904 -75.0076468804 -0.0546767491639 -74.7430852172 C 0.0264385395762 -74.4785235539 0.107553828317 -74.2140185234 0.188669117057 -73.9497774763 C 0.269784405797 -73.6855364292 0.350899694537 -73.4215609734 0.432014983278 -73.1580505671 C 0.513130272018 -72.8945401608 0.594245560758 -72.6314976186 0.675360849498 -72.3691141032 C 0.756476138238 -72.1067305878 0.837591426979 -71.8450100779 0.918706715719 -71.5841350819 C 0.999822004459 -71.3232600859 1.0809372932 -71.0632357015 1.16205258194 -70.8042354681 C 1.24316787068 -70.5452352347 1.32428315942 -70.2872653219 1.40539844816 -70.0304900302 C 1.4865137369 -69.7737147384 1.56762902564 -69.51814126 1.64874431438 -69.2639244308 C 1.72985960312 -69.0097076016 1.81097489186 -68.7568555858 1.8920901806 -68.5055135733 C 1.97320546934 -68.2541715608 2.05432075808 -68.0043486356 2.13543604682 -67.7561802033 C 2.21655133556 -67.508011771 2.2976666243 -67.2615077824 2.37878191304 -67.0167937634 C 2.45989720178 -66.7720797445 2.54101249052 -66.5291664584 2.62212777926 -66.2881694984 C 2.703243068 -66.0471725384 2.78435835674 -65.8081034254 2.86547364548 -65.5710678063 C 2.94658893423 -65.3340321873 3.02770422297 -65.0990422857 3.10881951171 -64.8661938289 C 3.18993480045 -64.633345372 3.27105008919 -64.4026512307 3.35216537793 -64.174197276 C 3.43328066667 -63.9457433213 3.51439595541 -63.719543016 3.59551124415 -63.4956724751 C 3.67662653289 -63.2718019342 3.75774182163 -63.0502751575 3.83885711037 -62.8311586377 C 3.91997239911 -62.6120421178 4.00108768785 -62.395350337 4.08220297659 -62.181140332 C 4.16331826533 -61.9669303269 4.24443355407 -61.7552170085 4.32554884281 -61.5460481535 C 4.40666413155 -61.3368792984 4.48777942029 -61.1302701935 4.56889470903 -60.9262595798 C 4.65000999777 -60.7222489662 4.73112528651 -60.5208524544 4.81224057525 -60.3221000004 C 4.89335586399 -60.1233475463 4.97447115273 -59.9272550337 5.05558644147 -59.733843907 C 5.13670173021 -59.5404327802 5.21781701895 -59.3497191466 5.29893230769 -59.1617162344 C 5.38004759643 -58.9737133223 5.46116288517 -58.7884374144 5.54227817391 -58.6058938372 C 5.62339346265 -58.42335026 5.70450875139 -58.2435554256 5.78562404013 -58.0665070894 C 5.86673932887 -57.8894587531 5.94785461761 -57.715173412 6.02896990635 -57.5436415955 C 6.1100851951 -57.3721097789 6.19120048383 -57.203348026 6.27231577258 -57.0373399981 C 6.35343106132 -56.8713319702 6.43454635006 -56.7080942074 6.5156616388 -56.5476038703 C 6.59677692754 -56.3871135333 6.67789221628 -56.2293871242 6.75900750502 -56.0743956786 C 6.84012279376 -55.919404233 6.9212380825 -55.7671641782 7.00235337124 -55.6176408053 C 7.08346865998 -55.4681174325 7.16458394872 -55.3213270591 7.24569923746 -55.1772296169 C 7.3268145262 -55.0331321747 7.40792981494 -54.8917438385 7.48904510368 -54.7530195666 C 7.57016039242 -54.6142952947 7.65127568116 -54.4782510889 7.7323909699 -54.3448373199 C 7.81350625864 -54.2114235509 7.89462154738 -54.0806560188 7.97573683612 -53.9524808911 C 8.05685212486 -53.8243057634 8.1379674136 -53.6987386119 8.21908270234 -53.5757217813 C 8.30019799108 -53.4527049506 8.38131327982 -53.3322537601 8.46242856856 -53.2143071065 C 8.5435438573 -53.0963604528 8.62465914604 -52.9809333808 8.70577443478 -52.8679617076 C 8.78688972352 -52.7549900344 8.86800501226 -52.64448851 8.949120301 -52.5363902325 C 9.03023558974 -52.428291955 9.11135087848 -52.3226113615 9.19246616722 -52.219279182 C 9.27358145596 -52.1159470025 9.3546967447 -52.0149773453 9.43581203344 -51.9162989128 C 9.51692732219 -51.8176204803 9.59804261092 -51.7212470378 9.67915789967 -51.6271055895 C 9.76027318841 -51.5329641411 9.84138847715 -51.4410680971 9.92250376589 -51.3513430802 C 10.0036190546 -51.2616180633 10.0847343434 -51.174077118 10.1658496321 -51.0886447898 C 10.2469649208 -51.0032124617 10.3280802096 -50.9199014208 10.4091954983 -50.8386354259 C 10.4903107871 -50.757369431 10.5714260758 -50.6781607707 10.6525413645 -50.6009326929 C 10.7336566533 -50.5237046151 10.814771942 -50.4484690219 10.8958872308 -50.3751489116 C 10.9770025195 -50.3018288013 11.0581178082 -50.2304356856 11.139233097 -50.16089256 C 11.2203483857 -50.0913494344 11.3014636745 -50.0236674177 11.3825789632 -49.957769734 C 11.463694252 -49.8918720503 11.5448095407 -49.8277694244 11.6259248294 -49.7653855252 C 11.7070401182 -49.703001626 11.7881554069 -49.6423467848 11.8692706957 -49.5833453157 C 11.9503859844 -49.5243438467 12.0315012731 -49.4670056891 12.1126165619 -49.4112559882 C 12.1937318506 -49.3555062872 12.2748471394 -49.3013545927 12.3559624281 -49.2487270513 C 12.4370777168 -49.1960995099 12.5181930056 -49.1450052855 12.5993082943 -49.0953716816 C 12.6804235831 -49.0457380777 12.7615388718 -48.9975738771 12.8426541605 -48.950807681 C 12.9237694493 -48.9040414848 13.004884738 -48.8586817001 13.0860000268 -48.8146583523 C 13.1671153155 -48.7706350045 13.2482306042 -48.727956131 13.329345893 -48.686553294 C 13.4104611817 -48.645150457 13.4915764705 -48.6050313315 13.5726917592 -48.5661291154 C 13.6538070479 -48.5272268993 13.7349223367 -48.4895489127 13.8160376254 -48.4530300752 C 13.8971529142 -48.4165112378 13.9782682029 -48.3811585229 14.0593834916 -48.3469086456 C 14.1404987804 -48.3126587683 14.2216140691 -48.2795183639 14.3027293579 -48.2474260041 C 14.3838446466 -48.2153336443 14.4649599353 -48.1842956355 14.5460752241 -48.1542524565 C 14.6271905128 -48.1242092774 14.7083058016 -48.0951669149 14.7894210903 -48.0670677939 C 14.870536379 -48.0389686729 14.9516516678 -48.0118184705 15.0327669565 -47.9855615868 C 15.1138822453 -47.9593047032 15.194997534 -47.9339465156 15.2761128227 -47.9094334192 C 15.3572281115 -47.8849203228 15.4383434002 -47.8612574051 15.519458689 -47.8383930668 C 15.6005739777 -47.8155287284 15.6816892664 -47.7934677776 15.7628045552 -47.7721606223 C 15.8439198439 -47.750853467 15.9250351327 -47.7303046466 16.0061504214 -47.7104665711 C 16.0872657101 -47.6906284956 16.1683809989 -47.6715054457 16.2494962876 -47.653051821 C 16.3306115764 -47.6345981963 16.4117268651 -47.6168180291 16.4928421538 -47.5996676893 C 16.5739574426 -47.5825173495 16.6550727313 -47.5660006316 16.7361880201 -47.5500758507 C 16.8173033088 -47.5341510698 16.8984185975 -47.5188217927 16.9795338863 -47.5040482496 C 17.060649175 -47.4892747064 17.1417644638 -47.4750602462 17.2228797525 -47.461366979 C 17.3039950412 -47.4476737119 17.38511033 -47.4345047791 17.4662256187 -47.4218241312 C 17.5473409075 -47.4091434834 17.6284561962 -47.396954064 17.7095714849 -47.3852216209 C 17.7906867737 -47.3734891778 17.8718020624 -47.3622164663 17.9529173512 -47.3513709854 C 18.0340326399 -47.3405255045 18.1151479287 -47.3301098305 18.1962632174 -47.3200931647 C 18.2773785061 -47.3100764989 18.3584937949 -47.3004612477 18.4396090836 -47.2912182632 C 18.5207243724 -47.2819752788 18.6018396611 -47.2731068067 18.6829549498 -47.2645852965 C 18.7640702386 -47.2560637864 18.8451855273 -47.2478913317 18.9263008161 -47.2400419252 C 19.0074161048 -47.2321925186 19.0885313935 -47.2246681097 19.1696466823 -47.2174441784 C 19.250761971 -47.2102202471 19.3318772598 -47.2032986071 19.4129925485 -47.1966561692 C 19.4941078372 -47.1900137314 19.575223126 -47.1836521813 19.6563384147 -47.1775498038 C 19.7374537035 -47.1714474263 19.8185689922 -47.1656057864 19.8996842809 -47.1600044858 C 19.9807995697 -47.1544031853 20.0619148584 -47.1490436756 20.1430301472 -47.1439068188 C 20.2241454359 -47.1387699619 20.3052607246 -47.1338571029 20.3863760134 -47.1291503071 C 20.4674913021 -47.1244435112 20.5486065909 -47.1199440238 20.6297218796 -47.1156350577 C 20.7108371683 -47.1113260916 20.7919524571 -47.1072087984 20.8730677458 -47.1032674836 C 20.9541830346 -47.0993261689 21.0352983233 -47.0955618964 21.116413612 -47.0919600103 C 21.1975289008 -47.0883581242 21.2786441895 -47.0849196063 21.3597594783 -47.0816307861 C 21.440874767 -47.0783419659 21.5219900557 -47.0752037488 21.6031053445 -47.072203398 C 21.6842206332 -47.0692030471 21.765335922 -47.0663413965 21.8464512107 -47.0636065927 C 21.9275664994 -47.0608717889 22.0086817882 -47.0582645994 22.0897970769 -47.0557740052 C 22.1709123657 -47.0532834111 22.2520276544 -47.0509101179 22.3331429431 -47.0486438938 C 22.4142582319 -47.0463776696 22.4953735206 -47.0442191628 22.5764888094 -47.0421588827 C 22.6576040981 -47.0400986026 22.7387193868 -47.0381371441 22.8198346756 -47.036265714 C 22.9009499643 -47.0343942839 22.9820652531 -47.0326134275 23.0631805418 -47.0309150068 C 23.1442958305 -47.029216586 23.2254111193 -47.0276011003 23.306526408 -47.0260610259 C 23.3876416968 -47.0245209515 23.4687569855 -47.0230567454 23.5498722742 -47.0216614594 C 23.630987563 -47.0202661733 23.7121028517 -47.0189402252 23.7932181405 -47.017677205 C 23.8743334292 -47.0164141849 23.9554487179 -47.0152144743 24.0365640067 -47.0140721664 C 24.1176792954 -47.0129298585 24.1987945842 -47.0118453015 24.2799098729 -47.0108130576 C 24.3610251617 -47.0097808137 24.4421404504 -47.0088012005 24.5232557391 -47.0078692174 C 24.6043710279 -47.0069372343 24.6854863166 -47.0060531705 24.7666016054 -47.0052124325 C 24.8477168941 -47.0043716946 24.9288321828 -47.0035745454 25.0099474716 -47.0028167699 C 25.0910627603 -47.0020589944 25.1721780491 -47.0013408316 25.2532933378 -47.0006584174 C 25.3344086265 -46.9999760032 25.4155239153 -46.9993295547 25.496639204 -46.9987155333 C 25.5777544928 -46.9981015119 25.6588697815 -46.9975201147 25.7399850702 -46.9969681045 C 25.821100359 -46.9964160942 25.9022156477 -46.9958936496 25.9833309365 -46.9953978121 C 26.0644462252 -46.9949019746 26.1455615139 -46.9944329061 26.2266768027 -46.9939879058 C 26.3077920914 -46.9935429054 26.3889073802 -46.9931221195 26.4700226689 -46.9927230849 C 26.5511379576 -46.9923240502 26.6322532464 -46.9919468992 26.7133685351 -46.9915893876 C 26.7944838239 -46.9912318759 26.8755991126 -46.9908941231 26.9567144013 -46.9905740866 C 27.0378296901 -46.99025405 27.1189449788 -46.9899518376 27.2000602676 -46.9896655919 C 27.2811755563 -46.9893793463 27.362290845 -46.9891091646 27.4434061338 -46.9888533599 C 27.5245214225 -46.9885975552 27.6056367113 -46.988356215 27.686752 -46.9881278084"
     title="t exp(-t*t)"
     id="path4766" />
  <path
     id="path4786"
     title="t exp(-t*t)"
     d=" M -77.107262 -68.177825223 C -77.0385823735 -68.178009898 -76.9699027469 -68.1782050535 -76.9012231204 -68.1784118575 C -76.8325434939 -68.1786186614 -76.7638638673 -68.1788371622 -76.6951842408 -68.1790685762 C -76.6265046143 -68.1792999902 -76.5578249877 -68.1795443945 -76.4891453612 -68.1798031268 C -76.4204657347 -68.180061859 -76.3517861081 -68.1803350049 -76.2831064816 -68.1806240341 C -76.2144268551 -68.1809130632 -76.1457472285 -68.1812180705 -76.077067602 -68.1815406691 C -76.0083879755 -68.1818632676 -75.9397083489 -68.1822035625 -75.8710287224 -68.1825633222 C -75.8023490959 -68.1829230819 -75.7336694693 -68.1833024229 -75.6649898428 -68.1837032821 C -75.5963102163 -68.1841041413 -75.5276305897 -68.1845266475 -75.4589509632 -68.1849729199 C -75.3902713367 -68.1854191923 -75.3215917101 -68.1858893732 -75.2529120836 -68.1863857789 C -75.1842324571 -68.1868821846 -75.1155528305 -68.1874049721 -75.046873204 -68.1879566704 C -74.9781935775 -68.1885083688 -74.9095139509 -68.1890891512 -74.8408343244 -68.189701776 C -74.7721546979 -68.1903144008 -74.7034750713 -68.1909590587 -74.6347954448 -68.1916387552 C -74.5661158183 -68.1923184518 -74.4974361918 -68.1930333967 -74.4287565652 -68.1937868612 C -74.3600769387 -68.1945403257 -74.2913973122 -68.1953325404 -74.2227176856 -68.1961670618 C -74.1540380591 -68.1970015831 -74.0853584326 -68.1978786645 -74.016678806 -68.1988021683 C -73.9479991795 -68.1997256721 -73.879319553 -68.2006958765 -73.8106399264 -68.2017169715 C -73.7419602999 -68.2027380665 -73.6732806734 -68.2038103572 -73.6046010468 -68.2049383842 C -73.5359214203 -68.2060664112 -73.4672417938 -68.2072505087 -73.3985621672 -68.2084955918 C -73.3298825407 -68.2097406749 -73.2612029142 -68.2110471093 -73.1925232876 -68.2124202097 C -73.1238436611 -68.2137933101 -73.0551640346 -68.2152334763 -72.986484408 -68.2167464487 C -72.9178047815 -68.218259421 -72.849125155 -68.2198456362 -72.7804455284 -68.2215112872 C -72.7117659019 -68.2231769382 -72.6430862754 -68.2249225018 -72.5744066488 -68.2267546516 C -72.5057270223 -68.2285868014 -72.4370473958 -68.2305060572 -72.3683677692 -68.2325196028 C -72.2996881427 -68.2345331484 -72.2310085162 -68.2366415499 -72.1623288896 -68.2388525311 C -72.0936492631 -68.2410635123 -72.0249696366 -68.2433776892 -71.95629001 -68.2458033569 C -71.8876103835 -68.2482290246 -71.818930757 -68.2507668526 -71.7502511304 -68.2534257389 C -71.6815715039 -68.2560846252 -71.6128918774 -68.2588652969 -71.5442122508 -68.2617772876 C -71.4755326243 -68.2646892784 -71.4068529978 -68.267733377 -71.3381733712 -68.2709197859 C -71.2694937447 -68.2741061949 -71.2008141182 -68.2774357691 -71.1321344916 -68.2809194138 C -71.0634548651 -68.2844030584 -70.9947752386 -68.2880416993 -70.926095612 -68.2918469783 C -70.8574159855 -68.2956522574 -70.788736359 -68.2996251761 -70.7200567324 -68.3037781481 C -70.6513771059 -68.30793112 -70.5826974794 -68.3122652274 -70.5140178528 -68.3167936901 C -70.4453382263 -68.3213221528 -70.3766585998 -68.326046139 -70.3079789732 -68.3309797099 C -70.2392993467 -68.3359132807 -70.1706197202 -68.341057696 -70.1019400936 -68.3464278925 C -70.0332604671 -68.3517980891 -69.9645808406 -68.3573954242 -69.895901214 -68.3632357446 C -69.8272215875 -68.3690760649 -69.758541961 -68.3751608316 -69.6898623344 -68.3815068345 C -69.6211827079 -68.3878528375 -69.5525030814 -68.3944616478 -69.4838234548 -68.4013510318 C -69.4151438283 -68.4082404158 -69.3464642018 -68.4154120611 -69.2777845753 -68.422884742 C -69.2091049487 -68.4303574229 -69.1404253222 -68.4381329502 -69.0717456957 -68.4462311369 C -69.0030660691 -68.4543293236 -68.9343864426 -68.4627521107 -68.8657068161 -68.4715203784 C -68.7970271895 -68.480288646 -68.728347563 -68.4894044728 -68.6596679365 -68.498889833 C -68.5909883099 -68.5083751932 -68.5223086834 -68.5182323103 -68.4536290569 -68.5284842773 C -68.3849494303 -68.5387362443 -68.3162698038 -68.5493854373 -68.2475901773 -68.56045609 C -68.1789105507 -68.5715267427 -68.1102309242 -68.5830213916 -68.0415512977 -68.5949654302 C -67.9728716711 -68.6069094689 -67.9041920446 -68.619305602 -67.8355124181 -68.632180399 C -67.7668327915 -68.6450551959 -67.698153165 -68.6584115378 -67.6294735385 -68.6722771817 C -67.5607939119 -68.6861428255 -67.4921142854 -68.7005208373 -67.4234346589 -68.7154401696 C -67.3547550323 -68.7303595019 -67.2860754058 -68.7458234138 -67.2173957793 -68.7618620573 C -67.1487161527 -68.7779007007 -67.0800365262 -68.7945175361 -67.0113568997 -68.8117439135 C -66.9426772731 -68.8289702909 -66.8739976466 -68.8468098805 -66.8053180201 -68.8652952238 C -66.7366383935 -68.883780567 -66.667958767 -68.9029155524 -66.5992791405 -68.9227339003 C -66.5305995139 -68.9425522482 -66.4619198874 -68.9630580739 -66.3932402609 -68.9842862582 C -66.3245606343 -69.0055144425 -66.2558810078 -69.0274693357 -66.1872013813 -69.0501869541 C -66.1185217547 -69.0729045725 -66.0498421282 -69.0963895097 -65.9811625017 -69.1206788852 C -65.9124828751 -69.1449682607 -65.8438032486 -69.1700669196 -65.7751236221 -69.196013045 C -65.7064439955 -69.2219591704 -65.637764369 -69.2487578669 -65.5690847425 -69.2764483339 C -65.5004051159 -69.3041388008 -65.4317254894 -69.33272641 -65.3630458629 -69.3622513213 C -65.2943662363 -69.3917762327 -65.2256866098 -69.4222440926 -65.1570069833 -69.4536959576 C -65.0883273567 -69.4851478225 -65.0196477302 -69.5175896204 -64.9509681037 -69.5510632313 C -64.8822884771 -69.5845368422 -64.8136088506 -69.6190484821 -64.7449292241 -69.6546407722 C -64.6762495975 -69.6902330622 -64.607569971 -69.7269125129 -64.5388903445 -69.7647223945 C -64.4702107179 -69.8025322761 -64.4015310914 -69.8414793992 -64.3328514649 -69.8816075814 C -64.2641718383 -69.9217357636 -64.1954922118 -69.9630521207 -64.1268125853 -70.0056009059 C -64.0581329588 -70.0481496912 -63.9894533322 -70.09193833 -63.9207737057 -70.137011389 C -63.8520940792 -70.1820844481 -63.7834144526 -70.2284496663 -63.7147348261 -70.2761517914 C -63.6460551996 -70.3238539165 -63.577375573 -70.3729010038 -63.5086959465 -70.4233378392 C -63.44001632 -70.4737746746 -63.3713366934 -70.5256096319 -63.3026570669 -70.5788873819 C -63.2339774404 -70.6321651319 -63.1652978138 -70.6868943682 -63.0966181873 -70.7431194824 C -63.0279385608 -70.7993445966 -62.9592589342 -70.8570746024 -62.8905793077 -70.9163534382 C -62.8218996812 -70.975632274 -62.7532200546 -71.0364692727 -62.6845404281 -71.098907735 C -62.6158608016 -71.1613461974 -62.547181175 -71.2253957735 -62.4785015485 -71.2910989323 C -62.409821922 -71.3568020912 -62.3411422954 -71.424168797 -62.2724626689 -71.4932404828 C -62.2037830424 -71.5623121686 -62.1351034158 -71.6330991083 -62.0664237893 -71.705641486 C -61.9977441628 -71.7781838637 -61.9290645362 -71.8524922572 -61.8603849097 -71.9286053794 C -61.7917052832 -72.0047185017 -61.7230256566 -72.0826472275 -61.6543460301 -72.1624285684 C -61.5856664036 -72.2422099094 -61.516986777 -72.3238550286 -61.4483071505 -72.4073989984 C -61.379627524 -72.4909429682 -61.3109478974 -72.5763972302 -61.2422682709 -72.6637946726 C -61.1735886444 -72.7511921149 -61.1049090178 -72.8405444461 -61.0362293913 -72.9318821194 C -60.9675497648 -73.0232197927 -60.8988701382 -73.1165547702 -60.8301905117 -73.2119148142 C -60.7615108852 -73.3072748582 -60.6928312586 -73.4046721699 -60.6241516321 -73.5041315599 C -60.5554720056 -73.60359095 -60.486792379 -73.7051248422 -60.4181127525 -73.8087548325 C -60.349433126 -73.9123848228 -60.2807534994 -74.0181235394 -60.2120738729 -74.1259890976 C -60.1433942464 -74.2338546559 -60.0747146198 -74.3438598689 -60.0060349933 -74.456019105 C -59.9373553668 -74.5681783411 -59.8686757402 -74.6825045766 -59.7999961137 -74.7990081672 C -59.7313164872 -74.9155117578 -59.6626368606 -75.0342058196 -59.5939572341 -75.1550964315 C -59.5252776076 -75.2759870434 -59.456597981 -75.3990874365 -59.3879183545 -75.5243991521 C -59.319238728 -75.6497108676 -59.2505591014 -75.7772472249 -59.1818794749 -75.9070049715 C -59.1131998484 -76.0367627181 -59.0445202219 -76.1687552333 -58.9758405953 -76.3029742209 C -58.9071609688 -76.4371932086 -58.8384813423 -76.5736520779 -58.7698017157 -76.7123372474 C -58.7011220892 -76.851022417 -58.6324424627 -76.9919472939 -58.5637628361 -77.1350927793 C -58.4950832096 -77.2782382646 -58.4264035831 -77.4236177302 -58.3577239565 -77.5712063383 C -58.28904433 -77.7187949464 -58.2203647035 -77.8686059987 -58.1516850769 -78.0206087103 C -58.0830054504 -78.1726114218 -58.0143258239 -78.326818988 -57.9456461973 -78.4831944829 C -57.8769665708 -78.6395699778 -57.8082869443 -78.7981264526 -57.7396073177 -78.9588206631 C -57.6709276912 -79.1195148735 -57.6022480647 -79.2823596876 -57.5335684381 -79.447305383 C -57.4648888116 -79.6122510783 -57.3962091851 -79.7793102996 -57.3275295585 -79.948426706 C -57.258849932 -80.1175431125 -57.1901703055 -80.2887290842 -57.1214906789 -80.4619215433 C -57.0528110524 -80.6351140023 -56.9841314259 -80.8103250219 -56.9154517993 -80.9874846904 C -56.8467721728 -81.164644359 -56.7780925463 -81.3437643999 -56.7094129197 -81.5247679957 C -56.6407332932 -81.7057715916 -56.5720536667 -81.8886700723 -56.5033740401 -82.0733796681 C -56.4346944136 -82.258089264 -56.3660147871 -82.4446208671 -56.2973351605 -82.6328837359 C -56.228655534 -82.8211466047 -56.1599759075 -83.011151149 -56.0912962809 -83.202799664 C -56.0226166544 -83.394448179 -55.9539370279 -83.5877505471 -55.8852574013 -83.7826021386 C -55.8165777748 -83.97745373 -55.7478981483 -84.1738638551 -55.6792185217 -84.3717210271 C -55.6105388952 -84.5695781992 -55.5418592687 -84.7688911117 -55.4731796421 -84.9695415207 C -55.4045000156 -85.1701919298 -55.3358203891 -85.3721878676 -55.2671407625 -85.5754044646 C -55.198461136 -85.7786210616 -55.1297815095 -85.9830656448 -55.0611018829 -86.188606883 C -54.9924222564 -86.3941481213 -54.9237426299 -86.6007925933 -54.8550630033 -86.8084027032 C -54.7863833768 -87.0160128131 -54.7177037503 -87.2245943492 -54.6490241237 -87.4340036808 C -54.5803444972 -87.6434130124 -54.5116648707 -87.8536550964 -54.4429852441 -88.0645805306 C -54.3743056176 -88.2755059649 -54.3056259911 -88.487118835 -54.2369463645 -88.6992642638 C -54.168266738 -88.9114096926 -54.0995871115 -89.1240908564 -54.0309074849 -89.3371477315 C -53.9622278584 -89.5502046066 -53.8935482319 -89.7636394239 -53.8248686054 -89.9772873744 C -53.7561889788 -90.190935325 -53.6875093523 -90.4047976595 -53.6188297258 -90.6187051766 C -53.5501500992 -90.8326126936 -53.4814704727 -91.0465656315 -53.4127908462 -91.2603908191 C -53.3441112196 -91.4742160067 -53.2754315931 -91.6879126403 -53.2067519666 -91.9013040311 C -53.13807234 -92.1146954219 -53.0693927135 -92.3277796968 -53.000713087 -92.5403771297 C -52.9320334604 -92.7529745627 -52.8633538339 -92.9650821866 -52.7946742074 -93.1765177448 C -52.7259945808 -93.387953303 -52.6573149543 -93.5987127126 -52.5886353278 -93.8086117178 C -52.5199557012 -94.018510723 -52.4512760747 -94.2275441065 -52.3825964482 -94.4355261672 C -52.3139168216 -94.6435082278 -52.2452371951 -94.8504325987 -52.1765575686 -95.0561127079 C -52.107877942 -95.261792817 -52.0391983155 -95.4662211361 -51.970518689 -95.669210815 C -51.9018390624 -95.872200494 -51.8331594359 -96.0737428344 -51.7644798094 -96.2736513171 C -51.6958001828 -96.4735597998 -51.6271205563 -96.6718245515 -51.5584409298 -96.8682600057 C -51.4897613032 -97.0646954599 -51.4210816767 -97.2592905674 -51.3524020502 -97.4518613468 C -51.2837224236 -97.6444321262 -51.2150427971 -97.8349663549 -51.1463631706 -98.023282277 C -51.077683544 -98.211598199 -51.0090039175 -98.3976824249 -50.940324291 -98.5813560687 C -50.8716446644 -98.7650297126 -50.8029650379 -98.9462782284 -50.7342854114 -99.1249262469 C -50.6656057848 -99.3035742655 -50.5969261583 -99.4796060986 -50.5282465318 -99.6528505383 C -50.4595669052 -99.826094978 -50.3908872787 -99.9965352126 -50.3222076522 -100.164004835 C -50.2535280256 -100.331474458 -50.1848483991 -100.495955556 -50.1161687726 -100.657287157 C -50.047489146 -100.818618757 -49.9788095195 -100.976781872 -49.910129893 -101.131621582 C -49.8414502664 -101.286461292 -49.7727706399 -101.437957565 -49.7040910134 -101.585962144 C -49.6354113868 -101.733966722 -49.5667317603 -101.878458563 -49.4980521338 -102.019296659 C -49.4293725072 -102.160134754 -49.3606928807 -102.297297088 -49.2920132542 -102.430650472 C -49.2233336276 -102.564003856 -49.1546540011 -102.693525342 -49.0859743746 -102.819090105 C -49.017294748 -102.944654867 -48.9486151215 -103.066239071 -48.879935495 -103.183726774 C -48.8112558685 -103.301214476 -48.7425762419 -103.414581003 -48.6738966154 -103.523719781 C -48.6052169889 -103.632858558 -48.5365373623 -103.737744126 -48.4678577358 -103.838279735 C -48.3991781093 -103.938815344 -48.3304984827 -104.034974802 -48.2618188562 -104.126671608 C -48.1931392297 -104.218368414 -48.1244596031 -104.305575699 -48.0557799766 -104.388217593 C -47.9871003501 -104.470859487 -47.9184207235 -104.548908507 -47.849741097 -104.622299757 C -47.7810614705 -104.695691008 -47.7123818439 -104.764396453 -47.6437022174 -104.828362477 C -47.5750225909 -104.892328501 -47.5063429643 -104.951526578 -47.4376633378 -105.005914632 C -47.3689837113 -105.060302685 -47.3003040847 -105.109851769 -47.2316244582 -105.154531557 C -47.1629448317 -105.199211345 -47.0942652051 -105.238992538 -47.0255855786 -105.273856734 C -46.9569059521 -105.30872093 -46.8882263255 -105.338638544 -46.819546699 -105.363603218 C -46.7508670725 -105.388567892 -46.6821874459 -105.408549828 -46.6135078194 -105.423554784 C -46.5448281929 -105.43855974 -46.4761485663 -105.448557779 -46.4074689398 -105.453566798 C -46.3387893133 -105.458575818 -46.2701096867 -105.458565812 -46.2014300602 -105.453566798 C -46.1327504337 -105.448567785 -46.0640708071 -105.438549758 -45.9953911806 -105.423554784 C -45.9267115541 -105.408559809 -45.8580319275 -105.388557958 -45.789352301 -105.363603218 C -45.7206726745 -105.338648478 -45.6519930479 -105.308711068 -45.5833134214 -105.273856734 C -45.5146337949 -105.2390024 -45.4459541683 -105.199201579 -45.3772745418 -105.154531557 C -45.3085949153 -105.109861534 -45.2399152887 -105.060293038 -45.1712356622 -105.005914632 C -45.1025560357 -104.951536225 -45.0338764091 -104.892318995 -44.9651967826 -104.828362477 C -44.8965171561 -104.764405958 -44.8278375295 -104.695681666 -44.759157903 -104.622299757 C -44.6904782765 -104.548917848 -44.6217986499 -104.470850331 -44.5531190234 -104.388217593 C -44.4844393969 -104.305584855 -44.4157597703 -104.218359464 -44.3470801438 -104.126671608 C -44.2784005173 -104.034983753 -44.2097208907 -103.93880662 -44.1410412642 -103.838279735 C -44.0723616377 -103.73775285 -44.0036820111 -103.632850079 -43.9350023846 -103.523719781 C -43.8663227581 -103.414589482 -43.7976431315 -103.30120626 -43.728963505 -103.183726774 C -43.6602838785 -103.066247287 -43.591604252 -102.944646932 -43.5229246254 -102.819090105 C -43.4542449989 -102.693533278 -43.3855653724 -102.563996217 -43.3168857458 -102.430650472 C -43.2482061193 -102.297304728 -43.1795264928 -102.160127426 -43.1108468662 -102.019296659 C -43.0421672397 -101.878465891 -42.9734876132 -101.733959719 -42.9048079866 -101.585962144 C -42.8361283601 -101.437964568 -42.7674487336 -101.286454626 -42.698769107 -101.131621582 C -42.6300894805 -100.976788537 -42.561409854 -100.81861244 -42.4927302274 -100.657287157 C -42.4240506009 -100.495961873 -42.3553709744 -100.3314685 -42.2866913478 -100.164004835 C -42.2180117213 -99.9965411706 -42.1493320948 -99.8260893874 -42.0806524682 -99.6528505383 C -42.0119728417 -99.4796116892 -41.9432932152 -99.3035690497 -41.8746135886 -99.1249262469 C -41.8059339621 -98.9462834442 -41.7372543356 -98.7650248777 -41.668574709 -98.5813560687 C -41.5998950825 -98.3976872598 -41.531215456 -98.2115937497 -41.4625358294 -98.023282277 C -41.3938562029 -97.8349708042 -41.3251765764 -97.6444280659 -41.2564969498 -97.4518613468 C -41.1878173233 -97.2592946277 -41.1191376968 -97.0646917907 -41.0504580702 -96.8682600057 C -40.9817784437 -96.6718282206 -40.9130988172 -96.4735565225 -40.8444191906 -96.2736513171 C -40.7757395641 -96.0737461116 -40.7070599376 -95.8721976082 -40.638380311 -95.669210815 C -40.5697006845 -95.4662240218 -40.501021058 -95.2617903211 -40.4323414314 -95.0561127079 C -40.3636618049 -94.8504350946 -40.2949821784 -94.6435061188 -40.2263025518 -94.4355261672 C -40.1576229253 -94.2275462155 -40.0889432988 -94.0185089969 -40.0202636722 -93.8086117178 C -39.9515840457 -93.5987144387 -39.8829044192 -93.3879519546 -39.8142247926 -93.1765177448 C -39.7455451661 -92.9650835349 -39.6768655396 -92.7529735858 -39.608185913 -92.5403771297 C -39.5395062865 -92.3277806737 -39.47082666 -92.1146948092 -39.4021470334 -91.9013040311 C -39.3334674069 -91.687913253 -39.2647877804 -91.47421575 -39.1961081538 -91.2603908191 C -39.1274285273 -91.0465658883 -39.0587489008 -90.8326127837 -38.9900692742 -90.6187051766 C -38.9213896477 -90.4047975694 -38.8527100212 -90.1909357519 -38.7840303946 -89.9772873744 C -38.7153507681 -89.7636389969 -38.6466711416 -89.5502053596 -38.5779915151 -89.3371477315 C -38.5093118885 -89.1240901033 -38.440632262 -88.9114107602 -38.3719526355 -88.6992642638 C -38.3032730089 -88.4871177675 -38.2345933824 -88.2755073349 -38.1659137559 -88.0645805306 C -38.0972341293 -87.8536537264 -38.0285545028 -87.6434146721 -37.9598748763 -87.4340036808 C -37.8911952497 -87.2245926895 -37.8225156232 -87.0160147493 -37.7538359967 -86.8084027032 C -37.6851563701 -86.6007906571 -37.6164767436 -86.3941503203 -37.5477971171 -86.188606883 C -37.4791174905 -85.9830634458 -37.410437864 -85.7786235092 -37.3417582375 -85.5754044646 C -37.2730786109 -85.3721854199 -37.2043989844 -85.1701946118 -37.1357193579 -84.9695415207 C -37.0670397313 -84.7688884296 -36.9983601048 -84.569581101 -36.9296804783 -84.3717210271 C -36.8610008517 -84.1738609533 -36.7923212252 -83.9774568367 -36.7236415987 -83.7826021386 C -36.6549619721 -83.5877474404 -36.5862823456 -83.3944514757 -36.5176027191 -83.202799664 C -36.4489230925 -83.0111478522 -36.380243466 -82.8211500766 -36.3115638395 -82.6328837359 C -36.2428842129 -82.4446173952 -36.1742045864 -82.258092896 -36.1055249599 -82.0733796681 C -36.0368453333 -81.8886664402 -35.9681657068 -81.7057753689 -35.8994860803 -81.5247679957 C -35.8308064537 -81.3437606225 -35.7621268272 -81.1646482669 -35.6934472007 -80.9874846904 C -35.6247675741 -80.810321114 -35.5560879476 -80.6351180263 -35.4874083211 -80.4619215433 C -35.4187286945 -80.2887250603 -35.350049068 -80.1175472381 -35.2813694415 -79.948426706 C -35.2126898149 -79.7793061739 -35.1440101884 -79.6122552917 -35.0753305619 -79.447305383 C -35.0066509353 -79.2823554743 -34.9379713088 -79.1195191608 -34.8692916823 -78.9588206631 C -34.8006120557 -78.7981221653 -34.7319324292 -78.6395743257 -34.6632528027 -78.4831944829 C -34.5945731761 -78.3268146401 -34.5258935496 -78.1726158174 -34.4572139231 -78.0206087103 C -34.3885342965 -77.8686016032 -34.31985467 -77.718799377 -34.2511750435 -77.5712063383 C -34.1824954169 -77.4236132996 -34.1138157904 -77.2782427183 -34.0451361639 -77.1350927793 C -33.9764565373 -76.9919428403 -33.9077769108 -76.8510268821 -33.8390972843 -76.7123372474 C -33.7704176577 -76.5736476128 -33.7017380312 -76.4371976741 -33.6330584047 -76.3029742209 C -33.5643787781 -76.1687507678 -33.4956991516 -76.0367671734 -33.4270195251 -75.9070049715 C -33.3583398986 -75.7772427696 -33.289660272 -75.6497153027 -33.2209806455 -75.5243991521 C -33.152301019 -75.3990830014 -33.0836213924 -75.275991449 -33.0149417659 -75.1550964315 C -32.9462621394 -75.034201414 -32.8775825128 -74.9155161248 -32.8089028863 -74.7990081672 C -32.7402232598 -74.6825002095 -32.6715436332 -74.5681826614 -32.6028640067 -74.456019105 C -32.5341843802 -74.3438555485 -32.4655047536 -74.2338589217 -32.3968251271 -74.1259890976 C -32.3281455006 -74.0181192735 -32.259465874 -73.912389027 -32.1907862475 -73.8087548325 C -32.122106621 -73.705120638 -32.0534269944 -73.603595086 -31.9847473679 -73.5041315599 C -31.9160677414 -73.4046680339 -31.8473881148 -73.3072789201 -31.7787084883 -73.2119148142 C -31.7100288618 -73.1165507084 -31.6413492352 -73.0232237748 -31.5726696087 -72.9318821194 C -31.5039899822 -72.840540464 -31.4353103556 -72.7511960126 -31.3666307291 -72.6637946726 C -31.2979511026 -72.5763933326 -31.229271476 -72.490946777 -31.1605918495 -72.4073989984 C -31.091912223 -72.3238512198 -31.0232325964 -72.2422136254 -30.9545529699 -72.1624285684 C -30.8858733434 -72.0826435115 -30.8171937168 -72.0047221217 -30.7485140903 -71.9286053794 C -30.6798344638 -71.8524886372 -30.6111548372 -71.7781873849 -30.5424752107 -71.705641486 C -30.4737955842 -71.6330955871 -30.4051159576 -71.5623155886 -30.3364363311 -71.4932404828 C -30.2677567046 -71.424165377 -30.199077078 -71.3568054081 -30.1303974515 -71.2910989323 C -30.061717825 -71.2253924566 -29.9930381984 -71.1613494097 -29.9243585719 -71.098907735 C -29.8556789454 -71.0364660603 -29.7869993188 -70.9756353809 -29.7183196923 -70.9163534382 C -29.6496400658 -70.8570714956 -29.5809604392 -70.7993475973 -29.5122808127 -70.7431194824 C -29.4436011862 -70.6868913676 -29.3749215596 -70.6321680261 -29.3062419331 -70.5788873819 C -29.2375623066 -70.5256067378 -29.16888268 -70.4737774624 -29.1002030535 -70.4233378392 C -29.031523427 -70.372898216 -28.9628438004 -70.3238565983 -28.8941641739 -70.2761517914 C -28.8254845474 -70.2284469845 -28.7568049208 -70.1820870246 -28.6881252943 -70.137011389 C -28.6194456678 -70.0919357534 -28.5507660412 -70.0481521634 -28.4820864147 -70.0056009059 C -28.4134067882 -69.9630496485 -28.3447271617 -69.9217381328 -28.2760475351 -69.8816075814 C -28.2073679086 -69.84147703 -28.1386882821 -69.8025345438 -28.0700086555 -69.7647223945 C -28.001329029 -69.7269102452 -27.9326494025 -69.6902352301 -27.8639697759 -69.6546407722 C -27.7952901494 -69.6190463142 -27.7266105229 -69.5845389121 -27.6579308963 -69.5510632313 C -27.5892512698 -69.5175875505 -27.5205716433 -69.4851497966 -27.4518920167 -69.4536959576 C -27.3832123902 -69.4222421186 -27.3145327637 -69.3917781131 -27.2458531371 -69.3622513213 C -27.1771735106 -69.3327245296 -27.1084938841 -69.3041405899 -27.0398142575 -69.2764483339 C -26.971134631 -69.2487560779 -26.9024550045 -69.2219608706 -26.8337753779 -69.196013045 C -26.7650957514 -69.1700652195 -26.6964161249 -69.1449698746 -26.6277364983 -69.1206788852 C -26.5590568718 -69.0963878959 -26.4903772453 -69.0729061027 -26.4216976187 -69.0501869541 C -26.3530179922 -69.0274678055 -26.2843383657 -69.0055158917 -26.2156587391 -68.9842862582 C -26.1469791126 -68.9630566246 -26.0782994861 -68.9425536192 -26.0096198595 -68.9227339003 C -25.940940233 -68.9029141814 -25.8722606065 -68.8837818626 -25.8035809799 -68.8652952238 C -25.7349013534 -68.846808585 -25.6662217269 -68.8289715139 -25.5975421003 -68.8117439135 C -25.5288624738 -68.7945163132 -25.4601828473 -68.7779018538 -25.3915032207 -68.7618620573 C -25.3228235942 -68.7458222607 -25.2541439677 -68.730360588 -25.1854643411 -68.7154401696 C -25.1167847146 -68.7005197512 -25.0481050881 -68.6861438474 -24.9794254615 -68.6722771817 C -24.910745835 -68.658410516 -24.8420662085 -68.6450561563 -24.7733865819 -68.632180399 C -24.7047069554 -68.6193046417 -24.6360273289 -68.6069103705 -24.5673477023 -68.5949654302 C -24.4986680758 -68.5830204899 -24.4299884493 -68.5715275883 -24.3613088227 -68.56045609 C -24.2926291962 -68.5493845917 -24.2239495697 -68.5387370366 -24.1552699431 -68.5284842773 C -24.0865903166 -68.5182315181 -24.0179106901 -68.5083759346 -23.9492310635 -68.498889833 C -23.880551437 -68.4894037313 -23.8118718105 -68.4802893392 -23.7431921839 -68.4715203784 C -23.6745125574 -68.4627514175 -23.6058329309 -68.454329971 -23.5371533043 -68.4462311369 C -23.4684736778 -68.4381323028 -23.3997940513 -68.4303580269 -23.3311144247 -68.422884742 C -23.2624347982 -68.415411457 -23.1937551717 -68.4082409788 -23.1250755452 -68.4013510318 C -23.0563959186 -68.3944610848 -22.9877162921 -68.3878533617 -22.9190366656 -68.3815068345 C -22.850357039 -68.3751603074 -22.7816774125 -68.3690765525 -22.712997786 -68.3632357446 C -22.6443181594 -68.3573949367 -22.5756385329 -68.3517985421 -22.5069589064 -68.3464278925 C -22.4382792798 -68.341057243 -22.3695996533 -68.3359137012 -22.3009200268 -68.3309797099 C -22.2322404002 -68.3260457185 -22.1635607737 -68.3213225428 -22.0948811472 -68.3167936901 C -22.0262015206 -68.3122648374 -21.9575218941 -68.3079314813 -21.8888422676 -68.3037781481 C -21.820162641 -68.2996248148 -21.7514830145 -68.2956525918 -21.682803388 -68.2918469783 C -21.6141237614 -68.2880413649 -21.5454441349 -68.2844033676 -21.4767645084 -68.2809194138 C -21.4080848818 -68.2774354599 -21.3394052553 -68.2741064805 -21.2707256288 -68.2709197859 C -21.2020460022 -68.2677330914 -21.1333663757 -68.2646895419 -21.0646867492 -68.2617772876 C -20.9960071226 -68.2588650333 -20.9273274961 -68.2560848681 -20.8586478696 -68.2534257389 C -20.789968243 -68.2507666096 -20.7212886165 -68.2482292484 -20.65260899 -68.2458033569 C -20.5839293634 -68.2433774655 -20.5152497369 -68.2410637182 -20.4465701104 -68.2388525311 C -20.3778904838 -68.236641344 -20.3092108573 -68.2345333377 -20.2405312308 -68.2325196028 C -20.1718516042 -68.230505868 -20.1031719777 -68.2285869752 -20.0344923512 -68.2267546516 C -19.9658127246 -68.224922328 -19.8971330981 -68.2231770977 -19.8284534716 -68.2215112872 C -19.759773845 -68.2198454768 -19.6910942185 -68.2182595671 -19.622414592 -68.2167464487 C -19.5537349654 -68.2152333302 -19.4850553389 -68.2137934439 -19.4163757124 -68.2124202097 C -19.3476960858 -68.2110469755 -19.2790164593 -68.2097407973 -19.2103368328 -68.2084955918 C -19.1416572062 -68.2072503863 -19.0729775797 -68.2060665231 -19.0042979532 -68.2049383842 C -18.9356183266 -68.2038102454 -18.8669387001 -68.2027381687 -18.7982590736 -68.2017169715 C -18.729579447 -68.2006957744 -18.6608998205 -68.1997257653 -18.592220194 -68.1988021683 C -18.5235405674 -68.1978785714 -18.4548609409 -68.197001668 -18.3861813144 -68.1961670618 C -18.3175016878 -68.1953324555 -18.2488220613 -68.194540403 -18.1801424348 -68.1937868612 C -18.1114628082 -68.1930333194 -18.0427831817 -68.1923185221 -17.9741035552 -68.1916387552 C -17.9054239287 -68.1909589884 -17.8367443021 -68.1903144647 -17.7680646756 -68.189701776 C -17.6993850491 -68.1890890873 -17.6307054225 -68.1885084268 -17.562025796 -68.1879566704 C -17.4933461695 -68.187404914 -17.4246665429 -68.1868822372 -17.3559869164 -68.1863857789 C -17.2873072899 -68.1858893205 -17.2186276633 -68.18541924 -17.1499480368 -68.1849729199 C -17.0812684103 -68.1845265998 -17.0125887837 -68.1841041845 -16.9439091572 -68.1837032821 C -16.8752295307 -68.1833023797 -16.8065499041 -68.182923121 -16.7378702776 -68.1825633222 C -16.6691906511 -68.1822035234 -16.6005110245 -68.1818633029 -16.531831398 -68.1815406691 C -16.4631517715 -68.1812180352 -16.3944721449 -68.1809130951 -16.3257925184 -68.1806240341 C -16.2571128919 -68.180334973 -16.1884332653 -68.1800618878 -16.1197536388 -68.1798031268 C -16.0510740123 -68.1795443657 -15.9823943857 -68.1793000161 -15.9137147592 -68.1790685762 C -15.8450351327 -68.1788371363 -15.7763555061 -68.1786186848 -15.7076758796 -68.1784118575 C -15.6389962531 -68.1782050302 -15.5703166265 -68.178009898 -15.501637 -68.177825223"
     style="opacity:1;fill:#051937;fill-opacity:0.99215686;stroke:#a8eb12;stroke-width:0.26458332;stroke-opacity:0.39215686" />
</svg>
